<?xml version="1.0" standalone="no"?><!DOCTYPE svg PUBLIC "-//W3C//DTD SVG 1.1//EN" "http://www.w3.org/Graphics/SVG/1.1/DTD/svg11.dtd"><svg t="1702299379056" class="icon" viewBox="0 0 1024 1024" version="1.1" xmlns="http://www.w3.org/2000/svg" p-id="6468" xmlns:xlink="http://www.w3.org/1999/xlink" width="48" height="48"><path d="M511.587429 273.946817C276.42224 273.946817 155.951652 511.587429 155.951652 511.587429s90.765512 237.640612 356.460919 237.640613c240.116035 0 356.460919-236.815471 356.460918-236.815471S750.878324 273.946817 511.587429 273.946817z m0.825142 386.991136c-85.814666 0-148.525383-65.18614-148.525383-148.525382s61.885576-148.525383 148.525383-148.525383 148.525383 65.18614 148.525382 148.525383-62.710717 148.525383-148.525382 148.525382z m0-238.465753c-49.508461 0-89.11523 41.257051-89.11523 89.115229 0 47.858179 39.606769 89.11523 89.11523 89.11523 49.508461 0 89.11523-41.257051 89.115229-89.11523 0-47.033038-39.606769-89.11523-89.115229-89.115229z" fill="#999999" p-id="6469"></path></svg>