<?xml version="1.0" standalone="no"?><!DOCTYPE svg PUBLIC "-//W3C//DTD SVG 1.1//EN" "http://www.w3.org/Graphics/SVG/1.1/DTD/svg11.dtd"><svg t="1701776219504" class="icon" viewBox="0 0 1024 1024" version="1.1" xmlns="http://www.w3.org/2000/svg" p-id="5606" xmlns:xlink="http://www.w3.org/1999/xlink" width="48" height="48"><path d="M655.616 6.7328c55.552 21.8112 90.368 66.688 104.4224 134.656 14.0544 67.9168 10.9568 131.0464-9.3184 189.3632 114.432-3.7376 186.88 8.1408 217.2928 35.584 45.6448 41.216 72.192 41.216 22.6816 293.2992-49.5104 252.0832-39.2192 368.64-152.8064 362.3168-75.6992-4.224-327.0144-4.224-753.92 0C27.9552 999.5008 0 962.3552 0 910.4896V469.2992c19.5072-54.4512 47.488-83.5584 83.968-87.3472 54.6816-5.6832 174.2848 10.4192 236.3648-36.5568 41.3696-31.3088 74.112-87.552 98.2016-168.6784 8.2432-76.7488 36.0448-127.5392 83.456-152.32 47.4112-24.832 98.6368-30.72 153.6-17.664z m29.2352 650.5984c-39.8592 45.1584-93.7472 67.584-165.5808 67.584-72.5504 0-129.9712-22.9888-175.4624-69.504a51.2 51.2 0 0 0-73.216 71.5776c65.2288 66.7136 149.1712 100.352 248.6784 100.352 100.1984 0 182.272-34.2016 242.3552-102.272a51.2 51.2 0 0 0-76.7744-67.7376z" p-id="5607" fill="#8a8a8a"></path></svg>